<mxfile host="65bd71144e">
    <diagram id="vDq1WIHXl16k-7dogF-h" name="Page-1">
        <mxGraphModel dx="224" dy="762" grid="1" gridSize="10" guides="1" tooltips="1" connect="1" arrows="1" fold="1" page="0" pageScale="1" pageWidth="827" pageHeight="1169" math="0" shadow="0">
            <root>
                <mxCell id="0"/>
                <mxCell id="1" parent="0"/>
                <mxCell id="2" value="calculateTotalGearPrice&lt;br&gt;(&amp;amp;driverCount, helmetPrice[], suitPrice[], shoePrice[], gearPrice[])" style="strokeWidth=2;html=1;shape=mxgraph.flowchart.terminator;whiteSpace=wrap;fillColor=#d80073;fontColor=#ffffff;strokeColor=#A50040;" parent="1" vertex="1">
                    <mxGeometry x="136.66" y="370" width="166.67" height="100" as="geometry"/>
                </mxCell>
                <mxCell id="3" value="" style="edgeStyle=none;html=1;strokeWidth=2;shadow=1;entryX=0.5;entryY=0;entryDx=0;entryDy=0;exitX=0.5;exitY=1;exitDx=0;exitDy=0;exitPerimeter=0;" parent="1" edge="1">
                    <mxGeometry relative="1" as="geometry">
                        <mxPoint x="219.83" y="470" as="sourcePoint"/>
                        <mxPoint x="219.83" y="520" as="targetPoint"/>
                    </mxGeometry>
                </mxCell>
                <mxCell id="4" value="totalGearPrice = 0" style="whiteSpace=wrap;html=1;strokeWidth=2;fillColor=#fa6800;fontColor=#FFFFFF;strokeColor=#C73500;" parent="1" vertex="1">
                    <mxGeometry x="160" y="520" width="120" height="60" as="geometry"/>
                </mxCell>
                <mxCell id="5" value="" style="edgeStyle=none;html=1;strokeWidth=2;shadow=1;entryX=0.5;entryY=0;entryDx=0;entryDy=0;exitX=0.5;exitY=1;exitDx=0;exitDy=0;exitPerimeter=0;" parent="1" edge="1">
                    <mxGeometry relative="1" as="geometry">
                        <mxPoint x="219.83" y="580" as="sourcePoint"/>
                        <mxPoint x="219.83" y="630" as="targetPoint"/>
                    </mxGeometry>
                </mxCell>
                <mxCell id="8" value="i = 0,&lt;br&gt;i &amp;lt; driverCount,&lt;br&gt;i++" style="rhombus;whiteSpace=wrap;html=1;strokeWidth=2;fillColor=#6a00ff;fontColor=#ffffff;strokeColor=#3700CC;" parent="1" vertex="1">
                    <mxGeometry x="170" y="630" width="100" height="100" as="geometry"/>
                </mxCell>
                <mxCell id="9" value="gearPrice[i] =&lt;br&gt;helmetPrice[i] + suitPrice[i] + shoePrice[i]" style="whiteSpace=wrap;html=1;strokeWidth=2;fillColor=#fa6800;fontColor=#FFFFFF;strokeColor=#C73500;" parent="1" vertex="1">
                    <mxGeometry x="321.66" y="650" width="160" height="60" as="geometry"/>
                </mxCell>
                <mxCell id="10" value="totalGearPrice += gearPrice[i]" style="whiteSpace=wrap;html=1;strokeWidth=2;fillColor=#fa6800;fontColor=#FFFFFF;strokeColor=#C73500;" parent="1" vertex="1">
                    <mxGeometry x="531.66" y="650" width="160" height="60" as="geometry"/>
                </mxCell>
                <mxCell id="11" value="return&lt;br&gt;totalGearPrice" style="strokeWidth=2;html=1;shape=mxgraph.flowchart.terminator;whiteSpace=wrap;fillColor=#d80073;fontColor=#ffffff;strokeColor=#A50040;" parent="1" vertex="1">
                    <mxGeometry x="136.67" y="789.86" width="166.67" height="100" as="geometry"/>
                </mxCell>
                <mxCell id="14" value="" style="edgeStyle=none;html=1;strokeWidth=2;shadow=1;exitX=0.5;exitY=1;exitDx=0;exitDy=0;exitPerimeter=0;entryX=0;entryY=0.5;entryDx=0;entryDy=0;" parent="1" edge="1">
                    <mxGeometry relative="1" as="geometry">
                        <mxPoint x="481.66" y="679.76" as="sourcePoint"/>
                        <mxPoint x="533.32" y="680" as="targetPoint"/>
                    </mxGeometry>
                </mxCell>
                <mxCell id="15" value="" style="edgeStyle=none;html=1;strokeWidth=2;shadow=1;exitX=0.5;exitY=1;exitDx=0;exitDy=0;rounded=0;curved=0;" parent="1" source="10" edge="1">
                    <mxGeometry relative="1" as="geometry">
                        <mxPoint x="640" y="705" as="sourcePoint"/>
                        <mxPoint x="220" y="770" as="targetPoint"/>
                        <Array as="points">
                            <mxPoint x="612" y="770"/>
                        </Array>
                    </mxGeometry>
                </mxCell>
                <mxCell id="18" value="" style="endArrow=classic;html=1;entryX=0;entryY=0.5;entryDx=0;entryDy=0;strokeWidth=2;" parent="1" target="9" edge="1">
                    <mxGeometry relative="1" as="geometry">
                        <mxPoint x="271" y="680" as="sourcePoint"/>
                        <mxPoint x="270" y="700" as="targetPoint"/>
                    </mxGeometry>
                </mxCell>
                <mxCell id="19" value="True" style="edgeLabel;resizable=0;html=1;;align=center;verticalAlign=middle;" parent="18" connectable="0" vertex="1">
                    <mxGeometry relative="1" as="geometry"/>
                </mxCell>
                <mxCell id="20" value="" style="endArrow=classic;html=1;exitX=0.5;exitY=1;exitDx=0;exitDy=0;entryX=0.5;entryY=0;entryDx=0;entryDy=0;entryPerimeter=0;strokeWidth=2;" parent="1" source="8" target="11" edge="1">
                    <mxGeometry relative="1" as="geometry">
                        <mxPoint x="210" y="710" as="sourcePoint"/>
                        <mxPoint x="310" y="710" as="targetPoint"/>
                    </mxGeometry>
                </mxCell>
                <mxCell id="21" value="False" style="edgeLabel;resizable=0;html=1;;align=center;verticalAlign=middle;" parent="20" connectable="0" vertex="1">
                    <mxGeometry relative="1" as="geometry">
                        <mxPoint y="-10" as="offset"/>
                    </mxGeometry>
                </mxCell>
            </root>
        </mxGraphModel>
    </diagram>
</mxfile>